<svg xmlns="http://www.w3.org/2000/svg" xmlns:xlink="http://www.w3.org/1999/xlink" version="1.1" x="0px" y="0px" width="100px" height="100px" viewBox="0 0 100 100" enable-background="new 0 0 100 100" xml:space="preserve">
<g id="Captions">
   <rect x="-192" width="185" height="99"/>
   <rect y="-36" width="100" height="30"/>
   <text transform="matrix(1 0 0 1 66 -19.5)" fill="#000000" font-family="'Helvetica'" font-size="2.4">http://thenounproject.com</text>
   <text transform="matrix(1 0 0 1 7.166 -24.5)"><tspan x="0" y="0" fill="#000000" font-family="'Helvetica-Bold'" font-size="6.1578">The Noun Project</tspan><tspan x="1.12" y="4.8" fill="#000000" font-family="'Helvetica-Bold'" font-size="4">Icon Template</tspan></text>
   <text transform="matrix(1 0 0 1 -178.5 10.5)" fill="#000000" font-family="'Helvetica-Bold'" font-size="6.1578">Reminders</text>
   <line fill="#000000" stroke="#FFFFFF" stroke-miterlimit="10" x1="8" y1="-14.5" x2="18" y2="-14.5"/>
   <line fill="#000000" stroke="#FFFFFF" stroke-miterlimit="10" x1="-179" y1="16.5" x2="-162" y2="16.5"/>
   <g>
       <g>
           <g>
               <rect x="-170.802" y="31.318" fill="#000000" width="8.721" height="8.642"/>
               <path fill="#000000" d="M-164.455,42.312h4.747v-4.703h-4.747V42.312z M-159.266,42.749h-5.63V37.17h5.63V42.749      L-159.266,42.749z M-166.221,44.062h8.279v-8.203h-8.279V44.062L-166.221,44.062z M-157.5,44.5h-9.163v-9.079h9.163V44.5      L-157.5,44.5z"/>
               <polygon fill="#000000" points="-166.149,44.133 -166.292,43.991 -158.013,35.787 -157.871,35.929     "/>
           </g>
       </g>
   </g>
   <rect x="-179" y="58" fill="none" width="35" height="32.5"/>
   <text transform="matrix(1 0 0 1 -179 60.1572)"><tspan x="0" y="0" fill="#000000" font-family="'Helvetica-Bold'" font-size="3">Strokes</tspan><tspan x="0" y="5" fill="#000000" font-family="'Helvetica'" font-size="2.4">Try to keep strokes at 4px</tspan><tspan x="0" y="10" fill="#000000" font-family="'Helvetica'" font-size="2.4">Minimum stroke weight is 2px</tspan><tspan x="0" y="14.5" fill="#000000" font-family="'Helvetica'" font-size="2.4">For thicker strokes use even </tspan><tspan x="0" y="17.5" fill="#000000" font-family="'Helvetica'" font-size="2.4">numbers: 6px, 8px etc.</tspan><tspan x="0" y="22" fill="#000000" font-family="'Helvetica-Bold'" font-size="2.4">Remember to expand strokes </tspan><tspan x="0" y="25" fill="#000000" font-family="'Helvetica-Bold'" font-size="2.4">before saving as an SVG </tspan></text>
   <rect x="-136.5" y="58" fill="none" width="35" height="32.5"/>
   <text transform="matrix(1 0 0 1 -136.5 60.1572)"><tspan x="0" y="0" fill="#000000" font-family="'Helvetica-Bold'" font-size="3">Size</tspan><tspan x="0" y="5" fill="#000000" font-family="'Helvetica'" font-size="2.4">Cannot be wider or taller than </tspan><tspan x="0" y="8.5" fill="#000000" font-family="'Helvetica'" font-size="2.4">100px (artboard size)</tspan><tspan x="0" y="13.5" fill="#000000" font-family="'Helvetica'" font-size="2.4">Scale your icon to fill as much of </tspan><tspan x="0" y="16.5" fill="#000000" font-family="'Helvetica'" font-size="2.4">the artboard as possible</tspan></text>
   <rect x="-94" y="58" fill="none" width="35" height="32.5"/>
   <text transform="matrix(1 0 0 1 -94 60.1572)"><tspan x="0" y="0" fill="#000000" font-family="'Helvetica-Bold'" font-size="3">Ungroup</tspan><tspan x="0" y="5" fill="#000000" font-family="'Helvetica'" font-size="2.4">If your design has more than one </tspan><tspan x="0" y="8" fill="#000000" font-family="'Helvetica'" font-size="2.4">shape, make sure to ungroup</tspan></text>
   <rect x="-50" y="58" fill="none" width="35" height="32.5"/>
   <text transform="matrix(1 0 0 1 -50 60.1572)"><tspan x="0" y="0" fill="#000000" font-family="'Helvetica-Bold'" font-size="3">Save as</tspan><tspan x="0" y="5" fill="#000000" font-family="'Helvetica'" font-size="2.4">Save as .SVG and make sure </tspan><tspan x="0" y="8" fill="#000000" font-family="'Helvetica'" font-size="2.4">&#8220;Use Artboards&#8221; is checked</tspan></text>
   <text transform="matrix(1.0074 0 0 1 -125.542 30.5933)" fill="#000000" font-family="'Helvetica'" font-size="2.5731">100px</text>
   <text transform="matrix(1.0074 0 0 1 -41 39)" fill="#000000" font-family="'Helvetica-Bold'" font-size="5.1462">.SVG</text>
   <rect x="-126.514" y="34.815" fill="#000000" width="10.261" height="10.185"/>
   <rect x="-126.477" y="31.766" fill="#000000" width="0.522" height="2.337"/>
   <rect x="-116.812" y="31.766" fill="#000000" width="0.523" height="2.337"/>
   <rect x="-127" y="32.337" fill="#000000" width="11.233" height="0.572"/>
   <g>
       <rect x="-83.805" y="33.844" fill="#000000" width="10.305" height="10.156"/>
       <rect x="-76.809" y="28.707" fill="#000000" width="3.308" height="3.261"/>
   </g>
   <rect x="-178.5" y="22.5" fill="#000000" stroke="#FFFFFF" stroke-miterlimit="10" width="30" height="30"/>
   <rect x="-136.5" y="22.5" fill="#000000" stroke="#FFFFFF" stroke-miterlimit="10" width="30" height="30"/>
   <rect x="-93.5" y="22.5" fill="#000000" stroke="#FFFFFF" stroke-miterlimit="10" width="30" height="30"/>
   <rect x="-49.5" y="22.5" fill="#000000" stroke="#FFFFFF" stroke-miterlimit="10" width="30" height="30"/>
</g>
<g id="Your_Icon">
   <path d="M96.684,39.109L73.81,35.785c4.203-2.968,7.051-7.747,7.087-12.719L81,13.064l-25.738,4.088L49,4.464l-7.059,14.303   l-25.05,2.879l0.809,8.862l0.056,0.361c0.453,2.056,1.248,3.909,2.299,5.516L1.316,39.109l23.842,23.24L19.53,95.165L49,79.671   l29.47,15.494l-5.628-32.816L96.684,39.109z M59.31,37.127c-2.607,2.223-4.932,6.204-10.041,6.204   c-5.112,0-5.652-4.253-8.468-6.204c-0.873-0.605,4.067,2.743,9.173,2.743C55.086,39.87,60.02,36.522,59.31,37.127z M53.529,26.097   l-8.474,1.064c-0.045,6.267-5.575,11.83-11.92,12.623c-6.34,0.793-11.206-3.455-12.546-9.54l-0.55-6.041l33.663-3.869l24.361-3.867   l-0.067,6.567c-0.046,6.27-5.576,11.825-11.923,12.619C59.731,36.445,54.874,32.183,53.529,26.097z"/>
</g>
</svg>